# xmcd CD database file
#
# Track frame offsets:
#	150
#	17345
#	33480
#	51210
#	64743
#	75302
#	89856
#	105070
#	118529
#	137062
#	154279
#
# Disc length: 2322 seconds
#
# Revision: 0
# Processed by: cddbd v1.5.2PL0 Copyright (c) Steve Scherf et al.
# Submitted via: CDex 1.51
#
DISCID=8209100b
DTITLE=Bonnie Dobson - Good Morning Rain
DYEAR=1970
DGENRE=Blues
TTITLE0=Light Of Love
TTITLE1=Sweet Man
TTITLE2=You Don't Know
TTITLE3=Clown
TTITLE4=Good Morning Rain
TTITLE5=Milk And Honey
TTITLE6=White Song
TTITLE7=Do What You Gotta Do
TTITLE8=Factory Girl
TTITLE9=Streets Of London
TTITLE10=A Taste Of Honey
EXTD=YEAR: 1970
EXTT0=
EXTT1=
EXTT2=
EXTT3=
EXTT4=
EXTT5=
EXTT6=
EXTT7=
EXTT8=
EXTT9=
EXTT10=
PLAYORDER=
